<svg xmlns="http://www.w3.org/2000/svg" version="1.1" viewBox="-5.0 -10.0 110.0 110.0">
 <path stroke-width="5" stroke="white" d="m96.875 31.25c0-4.1445-1.6484-8.1172-4.5742-11.051-2.9297-2.9297-6.9062-4.5742-11.051-4.5742h-62.5c-4.1445 0-8.1172 1.6484-11.051 4.5742-2.9297 2.9297-4.5742 6.9062-4.5742 11.051v44.496c0 3.3516 1.9375 6.3984 4.9688 7.8164 3.0312 1.4219 6.6133 0.96094 9.1836-1.1836l6.2461-5.207c1.6836-1.4023 3.8047-2.1719 6-2.1719h51.727c4.1445 0 8.1172-1.6484 11.051-4.5742 2.9297-2.9297 4.5742-6.9062 4.5742-11.051zm-6.25 0v28.125c0 2.4883-0.98828 4.8711-2.7461 6.6289-1.7578 1.7578-4.1406 2.7461-6.6289 2.7461h-51.727c-3.6523 0-7.1953 1.2812-10.004 3.6211l-6.2422 5.2031c-0.71094 0.58984-1.6953 0.71875-2.5352 0.32812-0.83594-0.39062-1.3672-1.2305-1.3672-2.1562v-44.496c0-2.4883 0.98828-4.8711 2.7461-6.6289 1.7578-1.7578 4.1406-2.7461 6.6289-2.7461h62.5c2.4883 0 4.8711 0.98828 6.6289 2.7461 1.7578 1.7578 2.7461 4.1406 2.7461 6.6289zm-65.625 25h34.375c1.7266 0 3.125-1.3984 3.125-3.125s-1.3984-3.125-3.125-3.125h-34.375c-1.7266 0-3.125 1.3984-3.125 3.125s1.3984 3.125 3.125 3.125zm0-15.625h50c1.7266 0 3.125-1.3984 3.125-3.125s-1.3984-3.125-3.125-3.125h-50c-1.7266 0-3.125 1.3984-3.125 3.125s1.3984 3.125 3.125 3.125z" fill-rule="evenodd"/>
<text x="0.0" y="117.5" font-size="5.0" font-weight="bold" font-family="Arbeit Regular, Helvetica, Arial-Unicode, Arial, Sans-serif" fill="#000000"></text><text x="0.0" y="122.5" font-size="5.0" font-weight="bold" font-family="Arbeit Regular, Helvetica, Arial-Unicode, Arial, Sans-serif" fill="#000000"></text></svg>