<svg xmlns="http://www.w3.org/2000/svg" xmlns:xlink="http://www.w3.org/1999/xlink" version="1.1" x="0px" y="0px" viewBox="0 0 64 80" style="enable-background:new 0 0 64 64;" xml:space="preserve"><g><path d="M54.049,15.199C55.848,13.73,57,11.498,57,9c0-4.411-3.589-8-8-8s-8,3.589-8,8c0,2.39,1.059,4.533,2.726,6H31V6   c0-2.757-2.243-5-5-5s-5,2.243-5,5v9h-0.5c-1.93,0-3.5,1.57-3.5,3.5s1.57,3.5,3.5,3.5H21v7.414l3.979,3.979L20,35.882l-6-3l-7,3.5   v8l-6,3v9.236l7,3.5l6-3l6,3l6-3l6,3l7-3.5v-9.236l-6-3v-8l-5.979-2.989L31,29.414V22h7.5c0.827,0,1.5,0.673,1.5,1.5v24.118   l0.553,0.276c0.06,0.03,0.601,0.295,1.447,0.627V59c0,2.206,1.794,4,4,4c1.201,0,2.266-0.542,3-1.382   C49.734,62.458,50.799,63,52,63c2.206,0,4-1.794,4-4V48.521c0.847-0.331,1.388-0.597,1.447-0.627L58,47.618V38c2.757,0,5-2.243,5-5   v-7C63,20.635,59.137,16.162,54.049,15.199z M48.848,20.359L45.984,17h5.809L48.848,20.359z M43,9c0-3.309,2.691-6,6-6s6,2.691,6,6   s-2.691,6-6,6S43,12.309,43,9z M23,27V13h6v14H23z M28.586,29L26,31.586L23.414,29H28.586z M29,11h-6V9h6V11z M26,3   c1.654,0,3,1.346,3,3v1h-6V6C23,4.346,24.346,3,26,3z M20.5,20c-0.827,0-1.5-0.673-1.5-1.5s0.673-1.5,1.5-1.5H21v3H20.5z M9,37.618   l5-2.5l5,2.5v6.764l-5,2.5l-5-2.5V37.618z M13,55.382l-5,2.5l-5-2.5v-6.764l5-2.5l5,2.5V55.382z M20,57.882l-5-2.5v-6.764l5-2.5   l5,2.5v6.764L20,57.882z M37,55.382l-5,2.5l-5-2.5v-6.764l5-2.5l5,2.5V55.382z M31,44.382l-5,2.5l-5-2.5v-6.764l5-2.5l5,2.5V44.382   z M38.5,20H31v-3h12.357l4.159,4.878l-1.531,1.746v24.021c-1.728-0.375-3.218-0.956-3.984-1.287V23.5C42,21.57,40.43,20,38.5,20z    M46,61c-1.103,0-2-0.897-2-2v-9.795c1.18,0.347,2.565,0.651,4,0.754V59C48,60.103,47.103,61,46,61z M54,59c0,1.103-0.897,2-2,2   s-2-0.897-2-2v-9.041c1.435-0.103,2.82-0.407,4-0.754V59z M61,33c0,1.654-1.346,3-3,3V22h-2v24.358C54.811,46.874,51.884,48,49,48   c-0.339,0-0.678-0.018-1.016-0.047V24.376l6.219-7.092C58.103,18.271,61,21.799,61,26V33z"/><rect x="50" y="25" width="2" height="2"/><rect x="50" y="29" width="2" height="2"/><rect x="50" y="33" width="2" height="2"/><rect x="50" y="37" width="2" height="2"/></g><text x="0" y="79" fill="#000000" font-size="5px" font-weight="bold" font-family="'Helvetica Neue', Helvetica, Arial-Unicode, Arial, Sans-serif"></text><text x="0" y="84" fill="#000000" font-size="5px" font-weight="bold" font-family="'Helvetica Neue', Helvetica, Arial-Unicode, Arial, Sans-serif"></text></svg>