<svg xmlns="http://www.w3.org/2000/svg" version="1.1" viewBox="-5.0 -10.0 110.0 135.0">
 <path d="m71.16 36.84-15.09-12.441c-3.5195-2.8984-8.6289-2.8984-12.141 0l-15.09 12.441c-2.7383 2.2617-4.3086 5.5898-4.3086 9.1406v20.699c0 6.1211 4.9805 11.102 11.102 11.102h28.73c6.1211 0 11.102-4.9805 11.102-11.102v-20.699c0.003906-3.5508-1.5664-6.8789-4.3047-9.1406zm-27.5 36.941v-15.77c0-1 0.82031-1.8203 1.8203-1.8203h9.3516c1 0 1.8203 0.82031 1.8203 1.8203v15.77zm27.809-7.1016c0 3.9219-3.1914 7.1016-7.1016 7.1016h-3.7188v-15.77c0-3.2109-2.6094-5.8203-5.8203-5.8203h-9.3516c-3.2109 0-5.8203 2.6094-5.8203 5.8203v15.77h-4.0312c-3.9219 0-7.1016-3.1914-7.1016-7.1016v-20.699c0-2.3516 1.0391-4.5586 2.8516-6.0508l15.09-12.441c1.0195-0.83984 2.2695-1.2617 3.5312-1.2617 1.25 0 2.5117 0.42188 3.5312 1.2617l15.09 12.441c1.8086 1.5 2.8516 3.6992 2.8516 6.0508z"/>
<text x="0.0" y="117.5" font-size="5.0" font-weight="bold" font-family="Arbeit Regular, Helvetica, Arial-Unicode, Arial, Sans-serif" fill="#000000"></text><text x="0.0" y="122.5" font-size="5.0" font-weight="bold" font-family="Arbeit Regular, Helvetica, Arial-Unicode, Arial, Sans-serif" fill="#000000"></text></svg>